<svg width="675" height="675" viewBox="0 0 675 675" fill="none" xmlns="http://www.w3.org/2000/svg">
<g clip-path="url(#clip0_430_75)">
<path d="M665 337.5C665 518.373 518.373 665 337.5 665C156.627 665 10 518.373 10 337.5C10 156.627 156.627 10 337.5 10C518.373 10 665 156.627 665 337.5Z" fill="black" stroke="#FF6700" stroke-width="20"/>
<path fill-rule="evenodd" clip-rule="evenodd" d="M369.25 64.782C302.164 57.1089 234.6 74.3859 179.432 113.321C124.264 152.256 85.3493 210.127 70.1026 275.906C54.856 341.686 64.3434 410.776 96.757 470.01C129.171 529.245 182.245 574.484 245.866 597.107C309.487 619.73 379.207 618.155 441.741 592.682C499.728 569.062 547.778 526.425 578.145 472.001H450.557C436.712 483.631 421.037 493.138 404.017 500.071C364.223 516.281 319.855 517.283 279.369 502.887C238.883 488.49 205.109 459.702 184.482 422.007C163.855 384.312 157.818 340.346 167.52 298.486C177.222 256.626 201.987 219.799 237.093 195.023C272.2 170.246 315.196 159.251 357.887 164.134C400.578 169.017 439.98 189.436 468.586 221.5C485.828 240.827 498.422 263.571 505.706 288.001H338.001L318.531 372.001H613L613.001 338.001C613.001 270.477 588.158 205.314 543.206 154.928C498.254 104.542 436.336 72.455 369.25 64.782Z" fill="#FF6700"/>
</g>
<defs>
<clipPath id="clip0_430_75">
<rect width="675" height="675" fill="white"/>
</clipPath>
</defs>
</svg>
